<svg xmlns="http://www.w3.org/2000/svg"><defs><symbol id="icon-envelop" viewBox="0 0 32 32"><path d="M29 4H3C1.35 4 0 5.35 0 7v20c0 1.65 1.35 3 3 3h26c1.65 0 3-1.35 3-3V7c0-1.65-1.35-3-3-3zM12.461 17.199L4 23.789V8.113l8.461 9.086zM5.512 8h20.976L16 15.875 5.512 8zm7.278 9.553L16 21l3.21-3.447L25.79 26H6.211l6.58-8.447zm6.749-.354L28 8.113v15.676l-8.461-6.59z"/></symbol><symbol id="icon-location2" viewBox="0 0 32 32"><path d="M16 0C10.477 0 6 4.477 6 10c0 10 10 22 10 22s10-12 10-22c0-5.523-4.477-10-10-10zm0 16.125a6.125 6.125 0 1 1 0-12.25 6.125 6.125 0 0 1 0 12.25zM12.125 10a3.875 3.875 0 1 1 7.75 0 3.875 3.875 0 0 1-7.75 0z"/></symbol><symbol id="icon-compass2" viewBox="0 0 32 32"><path d="M16 0C7.163 0 0 7.163 0 16s7.163 16 16 16 16-7.163 16-16S24.837 0 16 0zM3 16C3 8.82 8.82 3 16 3c3.424 0 6.538 1.325 8.86 3.488L12 12 6.488 24.86A12.952 12.952 0 0 1 3 16zm15.286 2.286l-8.003 3.43 3.43-8.003 4.573 4.573zM16 29a12.955 12.955 0 0 1-8.86-3.488L20 20l5.512-12.86A12.952 12.952 0 0 1 29 16c0 7.18-5.82 13-13 13z"/></symbol><symbol id="icon-user-tie" viewBox="0 0 32 32"><path d="M10 6a6 6 0 1 1 12 0 6 6 0 0 1-12 0zm14.002 8h-1.107l-6.222 12.633L19 15l-3-3-3 3 2.327 11.633L9.105 14H7.998C4 14 4 16.687 4 20v10h24V20c0-3.313 0-6-3.998-6z"/></symbol><symbol id="icon-lock" viewBox="0 0 32 32"><path d="M18.5 14H18V8c0-3.308-2.692-6-6-6H8C4.692 2 2 4.692 2 8v6h-.5c-.825 0-1.5.675-1.5 1.5v15c0 .825.675 1.5 1.5 1.5h17c.825 0 1.5-.675 1.5-1.5v-15c0-.825-.675-1.5-1.5-1.5zM6 8c0-1.103.897-2 2-2h4c1.103 0 2 .897 2 2v6H6V8z"/></symbol><symbol id="icon-heart" viewBox="0 0 32 32"><path d="M23.6 2c-3.363 0-6.258 2.736-7.599 5.594C14.659 4.736 11.764 2 8.4 2 3.763 2 0 5.764 0 10.401c0 9.433 9.516 11.906 16.001 21.232C22.131 22.365 32 19.533 32 10.401 32 5.764 28.237 2 23.6 2z"/></symbol><symbol id="icon-handshake" viewBox="0 0 36 28"><path d="M3 18c1.313 0 1.313-2 0-2s-1.313 2 0 2zm23.016-.906c-1.234-1.609-2.438-3.25-3.844-4.719l-1.953 2.188c-1.719 1.953-4.797 1.906-6.469-.094a3.806 3.806 0 0 1 .031-4.922l2.766-3.219C15.578 5.828 14.406 6 13.36 6c-.922 0-1.813.375-2.469 1.031L8.422 9.5H6V18c.688 0 1.312-.094 1.859.438L12.5 23c.953.922 2.187 1.734 3.547 1.734.703 0 1.453-.234 1.953-.734 1.172.406 2.531-.25 2.891-1.453a2.51 2.51 0 0 0 1.984-.688c.359-.328.828-.984.781-1.5.141.141.484.156.672.156 1.859 0 2.828-1.953 1.687-3.422zM28.5 18H30v-8h-1.453l-2.453-2.812A3.543 3.543 0 0 0 23.453 6h-2.609c-.875 0-1.719.391-2.281 1.047l-3.266 3.797a1.82 1.82 0 0 0-.016 2.344c.891 1.062 2.531 1.078 3.453.047l3.016-3.406c.719-.797 2.031-.047 1.703.969.594.688 1.234 1.359 1.813 2.047.781.969 1.531 1.984 2.297 2.969.484.625.844 1.375.938 2.188zm4.5 0c1.313 0 1.313-2 0-2s-1.313 2 0 2zm3-9v10c0 .547-.453 1-1 1h-6.781c-.562 1.359-1.797 2.266-3.234 2.469-.672.984-1.703 1.734-2.859 1.984-.859 1.094-2.25 1.75-3.641 1.656-2.578 1.453-5.484.187-7.406-1.703L6.595 20H1.001c-.547 0-1-.453-1-1V8.5c0-.547.453-1 1-1h6.578C9.392 5.687 10.641 4 13.36 4h1.828c1.016 0 2 .313 2.828.875A5.044 5.044 0 0 1 20.844 4h2.609c2.969 0 4.203 1.937 6 4H35c.547 0 1 .453 1 1z"/></symbol><symbol id="icon-circle-right" viewBox="0 0 32 32"><path d="M16 0C7.163 0 0 7.163 0 16s7.163 16 16 16 16-7.163 16-16S24.837 0 16 0zm0 29C8.82 29 3 23.18 3 16S8.82 3 16 3s13 5.82 13 13-5.82 13-13 13z"/><path d="M11.086 22.086l2.829 2.829 8.914-8.914-8.914-8.914-2.828 2.828 6.086 6.086z"/></symbol></defs></svg>